# xmcd CD database file
# Copyright (C) 1993-1998 Ti Kan
#
# Track frame offsets:
#	182
#	13422
#	23202
#	35420
#	50220
#	60857
#	70897
#	86487
#	100365
#	114257
#	126662
#	151292
#	163867
#	174750
#	186382
#	197010
#	209330
#	222312
#	237560
#
# Disc length: 3325 seconds
#
# Revision: 1
# Processed by: cddbd v1.4b41PL1 Copyright (c) Steve Scherf et al.
# Submitted via: CDValet v3.31 - Copyright (c) 1997 Greg Leichner
#
DISCID=150cfb13
DTITLE=Various Blues - All-Time 75 Blues Hits Disk 3
DYEAR=1900
DGENRE=
TTITLE0=Tell me (Howlin´Wolf)
TTITLE1=I wanna walk (John Lee Hooker)
TTITLE2=Mean mistreatin´ Mama (Elmore James)
TTITLE3=How blue you can get (B.B. King)
TTITLE4=Sinking Blues (Big Joe Williams)
TTITLE5=Dimples (John Lee Hooker)
TTITLE6=Walkin´ and cryin´ (B.B. King)
TTITLE7=Smokestack lightnin´ (Howlin´ Wolf)
TTITLE8=You can´t lose what you ain´t never had (Muddy Waters)
TTITLE9=Juke (Little Walter)
TTITLE10=My first wife left me (John Lee Hooker)
TTITLE11=Standing at the crossroads (Elmore James)
TTITLE12=Little red rooster (Howlin´Wolf)
TTITLE13=Every day I have the blues (B.B. King)
TTITLE14=Tell my mother (Big Joe Williams)
TTITLE15=Last night (Little Walter)
TTITLE16=The woman I love (B.B. King)
TTITLE17=Goin´ down slow (Howlin´ Wolf)
TTITLE18=Long distance call (Muddy Waters)
EXTD=
EXTT0=
EXTT1=
EXTT2=
EXTT3=
EXTT4=
EXTT5=
EXTT6=
EXTT7=
EXTT8=
EXTT9=
EXTT10=
EXTT11=
EXTT12=
EXTT13=
EXTT14=
EXTT15=
EXTT16=
EXTT17=
EXTT18=
PLAYORDER=
